<svg width="100" height="100" viewBox="0 0 100 100" fill="none" xmlns="http://www.w3.org/2000/svg">
<g clip-path="url(#clip0_96_3)">
<circle cx="50" cy="50" r="50" fill="white"/>
<path d="M15.267 49.152C15.267 42.288 16.752 36.183 19.722 30.837C22.692 25.425 26.817 21.234 32.097 18.264C37.443 15.228 43.482 13.71 50.214 13.71C58.464 13.71 65.526 15.888 71.4 20.244C77.274 24.6 81.201 30.54 83.181 38.064H64.569C63.183 35.16 61.203 32.949 58.629 31.431C56.121 29.913 53.25 29.154 50.016 29.154C44.802 29.154 40.578 30.969 37.344 34.599C34.11 38.229 32.493 43.08 32.493 49.152C32.493 55.224 34.11 60.075 37.344 63.705C40.578 67.335 44.802 69.15 50.016 69.15C53.25 69.15 56.121 68.391 58.629 66.873C61.203 65.355 63.183 63.144 64.569 60.24H83.181C81.201 67.764 77.274 73.704 71.4 78.06C65.526 82.35 58.464 84.495 50.214 84.495C43.482 84.495 37.443 83.01 32.097 80.04C26.817 77.004 22.692 72.813 19.722 67.467C16.752 62.121 15.267 56.016 15.267 49.152Z" fill="#0052FF"/>
</g>
<defs>
<clipPath id="clip0_96_3">
<rect width="100" height="100" fill="white"/>
</clipPath>
</defs>
</svg>
