<svg width="44" height="45" viewBox="0 0 44 45" fill="none" xmlns="http://www.w3.org/2000/svg">
<path d="M43.3406 27.9456C40.4031 40.0017 28.4642 47.333 16.6757 44.3255C4.89271 41.3442 -2.28417 29.1099 0.660659 17.0725C3.59449 5.00694 15.537 -2.32989 27.3182 0.671964C39.1085 3.68132 46.2817 15.8875 43.3406 27.9493V27.9456ZM31.6969 19.2962C32.137 16.315 29.911 14.7025 26.8561 13.615L27.8463 9.57816L25.435 8.95942L24.4724 12.91C23.8398 12.7469 23.1796 12.5969 22.5214 12.4413L23.4859 8.45317L21.0655 7.83442L20.0753 11.8938C19.5527 11.7682 19.0393 11.6463 18.535 11.5188L15.207 10.675L14.5652 13.3131C14.5652 13.3131 16.353 13.735 16.3163 13.7556C17.2973 14.0106 17.4715 14.6669 17.444 15.1919L14.7357 26.2918C14.5982 26.6031 14.2956 27.0531 13.6099 26.8806C13.6374 26.9181 11.8496 26.4306 11.8496 26.4306L10.6394 29.2618L13.7749 30.0605L15.4802 30.5143L14.49 34.6205L16.9104 35.2336L17.9006 31.1649C18.5607 31.3524 19.1933 31.5212 19.8259 31.6768L18.8908 35.7155L21.3112 36.3343L22.3105 32.228C26.4179 33.0287 29.5167 32.7099 30.8186 28.9018C31.8638 25.8324 30.7636 24.0643 28.5871 22.9093C30.153 22.5475 31.3375 21.4843 31.6676 19.2906H31.6859L31.6969 19.2962ZM26.1777 27.2087C25.4369 30.2837 20.3888 28.6149 18.7514 28.2024L20.0716 22.765C21.7146 23.1962 26.9606 24.0212 26.1777 27.2087ZM26.9295 19.2587C26.251 22.0525 22.0483 20.6369 20.6859 20.29L21.8851 15.34C23.2493 15.6775 27.6372 16.3225 26.9276 19.2475V19.2587H26.9295Z" fill="#0052FF"/>
</svg>
