<svg width="41" height="41" viewBox="0 0 41 41" fill="none" xmlns="http://www.w3.org/2000/svg">
<path fill-rule="evenodd" clip-rule="evenodd" d="M18.4481 0.101405C12.3136 0.723337 6.81249 4.03931 3.37829 9.18499C2.66141 10.2591 1.66581 12.196 1.22826 13.3676C0.860619 14.3518 0.394899 16.1346 0.183422 17.3668C-0.0613635 18.7926 -0.0610549 22.1986 0.183834 23.622C0.938445 28.0078 2.74355 31.6067 5.76199 34.7436C6.31551 35.3186 7.11783 36.0704 7.54489 36.414C10.5558 38.8364 14.613 40.5061 18.4333 40.8949C28.4195 41.9112 37.7695 35.4605 40.3488 25.7754C40.8814 23.7751 41.002 22.7968 41 20.4944C40.9978 18.1913 40.8737 17.185 40.3488 15.2134C39.956 13.7386 39.6429 12.9152 38.9062 11.4192C36.8569 7.25849 33.4899 3.96066 29.2429 1.95459C25.919 0.384428 22.1085 -0.269703 18.4481 0.101405ZM20.9606 4.82091C21.3107 4.97995 21.5529 5.37177 21.5529 5.77888C21.5529 6.223 21.3856 6.51278 21.0204 6.70116C20.6408 6.89692 20.3677 6.89692 19.9882 6.70116C18.7953 6.08579 19.737 4.26481 20.9606 4.82091ZM12.7171 5.70238C13.0583 6.08302 12.9462 6.66558 12.4958 6.85159C11.8148 7.13297 11.2203 6.27242 11.7173 5.72463C11.947 5.47135 12.4989 5.45904 12.7171 5.70238ZM29.2856 5.71837C29.5445 6.00365 29.4631 6.53053 29.121 6.78412C28.4607 7.27356 27.7333 6.32503 28.2915 5.70238C28.5067 5.46222 29.0613 5.47114 29.2856 5.71837ZM15.2919 9.47837C15.6481 9.83368 15.7269 10.2481 15.5205 10.6817C15.1957 11.3646 14.3541 11.5045 13.8138 10.9657C13.1391 10.2927 13.6052 9.21452 14.5709 9.21452C14.9242 9.21452 15.0872 9.2742 15.2919 9.47837ZM27.1947 9.51426C27.7382 10.0564 27.5487 10.9199 26.8192 11.224C26.0767 11.5335 25.2148 10.8194 25.387 10.0375C25.5673 9.21852 26.5988 8.92001 27.1947 9.51426ZM21.1991 9.93182C22.1012 10.4803 22.1825 11.5426 21.3796 12.2909C21.1512 12.5037 21.0027 12.5472 20.5043 12.5472C20.0058 12.5472 19.8573 12.5037 19.629 12.2909C19.1977 11.889 19.0354 11.4948 19.0927 10.9879C19.2057 9.98822 20.3492 9.41489 21.1991 9.93182ZM8.4678 12.4013C9.31288 13.2442 8.30608 14.6342 7.24644 14.0876C6.8533 13.8849 6.58477 13.3229 6.67832 12.8982C6.77373 12.4647 7.27636 12.0858 7.75606 12.0858C8.06058 12.0858 8.22425 12.1584 8.4678 12.4013ZM33.9509 12.3401C34.5524 12.8448 34.4205 13.798 33.7081 14.0949C33.2222 14.2973 32.813 14.2033 32.4842 13.8136C31.6523 12.8275 32.963 11.5109 33.9509 12.3401ZM18.4257 13.4755C20.2131 14.2202 20.2131 16.7192 18.4257 17.4639C17.0633 18.0316 15.4765 16.9734 15.4689 15.4921C15.4611 13.9803 17.0449 12.9003 18.4257 13.4755ZM24.0508 13.4312C24.2918 13.498 24.6376 13.7204 24.8872 13.9693C25.9883 15.0676 25.6267 16.8624 24.1829 17.4639C22.4712 18.1771 20.6685 16.3791 21.3836 14.6717C21.8274 13.612 22.9008 13.1127 24.0508 13.4312ZM13.3257 14.7169C13.6962 15.0513 13.8482 15.467 13.7964 16.0042C13.6893 17.1158 12.5031 17.616 11.5113 16.9679C11.2322 16.7855 10.9431 16.205 10.9431 15.8271C10.9431 15.4783 11.2982 14.8365 11.5934 14.6516C12.1182 14.3229 12.9229 14.3532 13.3257 14.7169ZM29.1081 14.4923C29.4376 14.5865 29.9425 15.2068 30.0184 15.6108C30.1135 16.1165 29.7717 16.8393 29.3291 17.0685C28.8898 17.2958 28.2044 17.2969 27.8582 17.0707C27.2536 16.6755 27.0111 15.7984 27.3342 15.1752C27.5243 14.8084 27.7122 14.6575 28.1882 14.4892C28.5637 14.3563 28.6332 14.3565 29.1081 14.4923ZM15.3923 18.4497C15.8977 18.5896 16.4788 19.1049 16.7142 19.6218C17.3455 21.0078 16.2793 22.6478 14.747 22.6478C13.2137 22.6478 12.1437 20.9998 12.783 19.6228C13.2488 18.6191 14.2992 18.1469 15.3923 18.4497ZM26.9295 18.4559C27.7182 18.6743 28.4194 19.6335 28.4194 20.4944C28.4194 21.982 26.8252 23.0568 25.4615 22.4886C23.7044 21.7565 23.6591 19.3336 25.3876 18.5354C25.859 18.3177 26.3407 18.2929 26.9295 18.4559ZM9.3428 19.728C10.1844 20.506 9.41795 21.7977 8.29189 21.499C7.92086 21.4007 7.55147 20.9101 7.55085 20.5149C7.54972 19.8668 8.21181 19.3249 8.85477 19.4475C8.98266 19.4719 9.20226 19.5982 9.3428 19.728ZM32.9271 19.6028C33.1974 19.7325 33.4581 20.1704 33.4581 20.4944C33.4581 21.522 32.0312 21.947 31.4998 21.0778C31.076 20.3847 31.3894 19.6767 32.2244 19.4402C32.3963 19.3916 32.5716 19.4321 32.9271 19.6028ZM4.43392 19.9995C4.73258 20.2795 4.73823 20.667 4.44831 20.9749C4.17145 21.2688 3.85686 21.277 3.5034 20.9996C3.16856 20.737 3.14944 20.3394 3.45601 20.0139C3.73668 19.716 4.12519 19.7103 4.43392 19.9995ZM37.5381 19.9995C37.8368 20.2795 37.8424 20.667 37.5525 20.9749C37.2718 21.2728 36.8833 21.2785 36.5746 20.9893C36.2498 20.6849 36.2639 20.2588 36.6076 19.9892C36.9549 19.7166 37.2396 19.7199 37.5381 19.9995ZM18.271 23.4743C18.7764 23.6143 19.3574 24.1296 19.5929 24.6465C20.2241 26.0325 19.1579 27.6725 17.6256 27.6725C16.0924 27.6725 15.0223 26.0245 15.6616 24.6474C16.1274 23.6437 17.1778 23.1715 18.271 23.4743ZM24.0282 23.4743C24.2418 23.5335 24.5845 23.729 24.7897 23.9087C25.9988 24.9676 25.6749 26.8916 24.1829 27.5133C22.8092 28.0856 21.2284 27.0186 21.2284 25.5191C21.2284 24.0806 22.6002 23.0788 24.0282 23.4743ZM13.2163 23.989C14.5777 24.9559 13.4627 27.0865 11.9057 26.4933C11.301 26.2629 11.0061 25.8312 10.9995 25.1667C10.9941 24.6048 11.1947 24.2343 11.6628 23.9418C12.042 23.705 12.8508 23.7295 13.2163 23.989ZM29.555 24.1654C30.091 24.7002 30.1802 25.1941 29.8523 25.8108C29.3866 26.6863 28.3548 26.8631 27.6217 26.193C27.3438 25.939 27.2578 25.7692 27.2149 25.389C27.1056 24.4221 27.6632 23.7789 28.6125 23.7769C29.1151 23.7759 29.1993 23.8106 29.555 24.1654ZM8.50142 27.1688C8.90751 27.6024 8.89425 28.1622 8.4678 28.5875C7.62827 29.4249 6.30862 28.5241 6.76807 27.4273C7.0655 26.7172 7.95427 26.5846 8.50142 27.1688ZM33.8816 26.9654C34.1481 27.1011 34.4066 27.744 34.3315 28.0847C34.2334 28.5306 33.735 28.903 33.2366 28.903C32.3439 28.903 31.8958 27.8727 32.4849 27.1743C32.829 26.7664 33.3408 26.6898 33.8816 26.9654ZM21.1991 28.5949C22.2296 29.2214 22.1655 30.565 21.0783 31.1289C20.214 31.5773 19.0642 30.8213 19.0654 29.8054C19.0662 29.1013 19.7887 28.391 20.5043 28.391C20.7022 28.391 21.0149 28.4828 21.1991 28.5949ZM15.2919 29.9872C15.9378 30.6315 15.6601 31.5123 14.7155 31.8152C14.4588 31.8975 13.883 31.6398 13.681 31.3521C13.4051 30.9593 13.4638 30.3723 13.8138 30.0231C14.2237 29.6144 14.9015 29.5979 15.2919 29.9872ZM27.1947 30.0231C27.7382 30.5653 27.5487 31.4288 26.8192 31.7329C26.0767 32.0423 25.2148 31.3283 25.387 30.5464C25.5673 29.7274 26.5988 29.4289 27.1947 30.0231ZM12.7484 34.3448C13.1322 34.7678 12.8039 35.4915 12.2282 35.4915C11.6794 35.4915 11.3292 34.7902 11.672 34.378C11.9733 34.0159 12.4371 34.0015 12.7484 34.3448ZM29.3005 34.3448C29.6843 34.7678 29.356 35.4915 28.7803 35.4915C28.2315 35.4915 27.8813 34.7902 28.2241 34.378C28.5254 34.0159 28.9892 34.0015 29.3005 34.3448ZM21.0013 34.2779C21.6393 34.607 21.7485 35.4898 21.213 35.9888C20.8514 36.3256 20.4544 36.3719 19.9882 36.1314C19.6217 35.9423 19.4556 35.653 19.4556 35.2035C19.4556 34.3997 20.2802 33.906 21.0013 34.2779Z" fill="#0052FF"/>
</svg>
