<svg width="40" height="31" viewBox="0 0 40 31" fill="none" xmlns="http://www.w3.org/2000/svg">
<path fill-rule="evenodd" clip-rule="evenodd" d="M6.78423 0.188385C6.6184 0.291619 5.02424 1.82443 3.24155 3.59461C-0.258523 7.07029 -0.290181 7.11222 0.265191 7.54403L0.530013 7.75L16.5213 7.7494C26.5787 7.74911 32.6432 7.71304 32.8644 7.65223C33.1357 7.57761 33.9911 6.78811 36.6081 4.19663C38.4736 2.34924 40 0.767051 40 0.680708C40 0.594266 39.9062 0.405782 39.7917 0.261811L39.5834 0L23.3345 0.000397436C7.57819 0.000695513 7.07659 0.00645834 6.78423 0.188385ZM0.265191 11.7316C-0.290884 12.164 -0.262241 12.2018 3.2918 15.7305C5.11831 17.5441 6.72714 19.0602 6.90664 19.1371C7.1788 19.2537 9.78762 19.2756 23.3683 19.2756H39.5066L39.7533 19.0317C39.8889 18.8976 40 18.7092 40 18.6129C40 18.3791 33.4082 11.842 32.9932 11.6642C32.7211 11.5476 30.1228 11.5256 16.5999 11.5256H0.530013L0.265191 11.7316ZM6.88473 23.3926C6.7189 23.4667 5.10213 24.9979 3.2918 26.7952C-0.262241 30.3239 -0.290884 30.3616 0.265191 30.794L0.530013 31H16.5999C30.8743 31 32.7116 30.9828 33.0435 30.8463C33.4523 30.6781 39.601 24.7012 39.8565 24.2237C40.0512 23.8597 40.0395 23.7768 39.7533 23.4939L39.5066 23.25L23.3464 23.2539C9.96189 23.2572 7.13447 23.2809 6.88473 23.3926Z" fill="#0052FF"/>
</svg>
